<svg width="376" height="376" viewBox="0 0 376 376" fill="none" xmlns="http://www.w3.org/2000/svg">
<g filter="url(#filter0_b_3:75)">
<rect x="0.636047" y="188" width="187.364" height="187.364" fill="white" fill-opacity="0.5"/>
<path d="M188 94.318C188 42.5789 229.943 0.636078 281.682 0.636078V0.636078C333.421 0.636078 375.364 42.5789 375.364 94.318V94.318C375.364 146.057 333.421 188 281.682 188V188C229.943 188 188 146.057 188 94.318V94.318Z" fill="white" fill-opacity="0.5"/>
<path d="M0.636475 0.6362H188V94.3181C188 146.057 146.058 188 94.3184 188V188C42.5793 188 0.636475 146.057 0.636475 94.3182V0.6362Z" fill="white" fill-opacity="0.5"/>
<path d="M375.364 188L375.364 375.364L281.682 375.364C229.943 375.364 188 333.421 188 281.682V281.682C188 229.943 229.943 188 281.682 188L375.364 188Z" fill="white" fill-opacity="0.5"/>
</g>
<defs>
<filter id="filter0_b_3:75" x="-19.364" y="-19.3639" width="414.728" height="414.728" filterUnits="userSpaceOnUse" color-interpolation-filters="sRGB">
<feFlood flood-opacity="0" result="BackgroundImageFix"/>
<feGaussianBlur in="BackgroundImage" stdDeviation="10"/>
<feComposite in2="SourceAlpha" operator="in" result="effect1_backgroundBlur_3:75"/>
<feBlend mode="normal" in="SourceGraphic" in2="effect1_backgroundBlur_3:75" result="shape"/>
</filter>
</defs>
</svg>
