<svg width="33" height="33" viewBox="0 0 33 33" fill="none" xmlns="http://www.w3.org/2000/svg">
<path d="M9.21557 2.52927C10.5795 1.49629 12.2446 0.939157 13.9556 0.943266C14.5465 0.930016 15.1312 1.06602 15.6555 1.3387C16.1799 1.61138 16.6271 2.01193 16.9556 2.50327C17.2841 2.01193 17.7312 1.61138 18.2556 1.3387C18.78 1.06602 19.3647 0.930016 19.9556 0.943266C21.6665 0.939157 23.3316 1.49629 24.6956 2.52927C25.7456 3.34527 26.5556 4.47527 26.8416 5.84127C27.4976 5.89127 28.0976 6.16327 28.6016 6.57327C29.3656 7.19327 29.9216 8.12327 30.2716 9.10727C30.8196 10.6373 30.9676 12.5873 30.3996 14.2473C30.5436 14.3153 30.6856 14.3953 30.8236 14.4873C31.3736 14.8533 31.7916 15.3773 32.0996 15.9953C32.7056 17.2053 32.9556 18.8933 32.9556 20.9433C32.9556 23.2253 32.0856 24.7573 30.9816 25.7033C30.3711 26.2267 29.6506 26.6061 28.8736 26.8133C28.6736 27.9293 28.1136 29.2213 27.2356 30.3173C26.0956 31.7473 24.3276 32.9433 21.9556 32.9433C20.0756 32.9433 18.5796 31.9033 17.6076 30.8833C17.3752 30.6397 17.1575 30.3826 16.9556 30.1133C16.7537 30.3826 16.536 30.6398 16.3036 30.8833C15.3316 31.9033 13.8376 32.9433 11.9556 32.9433C9.58357 32.9433 7.81757 31.7473 6.67557 30.3173C5.85509 29.2984 5.29312 28.0962 5.03757 26.8133C4.26053 26.6061 3.54007 26.2267 2.92957 25.7033C1.82557 24.7573 0.955566 23.2233 0.955566 20.9433C0.955566 18.8933 1.20757 17.2033 1.81157 15.9953C2.11957 15.3773 2.53757 14.8553 3.08757 14.4853C3.22264 14.3958 3.36439 14.3169 3.51157 14.2493C2.94357 12.5853 3.09157 10.6373 3.63957 9.10727C3.98957 8.12327 4.54557 7.19327 5.30957 6.57327C5.81357 6.16327 6.41357 5.89327 7.06957 5.84127C7.35757 4.47527 8.16757 3.34527 9.21757 2.52927H9.21557ZM15.9556 5.94327V5.92327L15.9516 5.82327C15.9221 5.30187 15.8184 4.78735 15.6436 4.29527C15.5191 3.92379 15.3071 3.58768 15.0256 3.31527C14.7302 3.05803 14.3468 2.92476 13.9556 2.94327C12.6895 2.93893 11.4565 3.34758 10.4436 4.10727C9.51557 4.82927 8.95557 5.80727 8.95557 6.94327C8.95545 7.10163 8.91771 7.25771 8.84548 7.39864C8.77324 7.53957 8.66857 7.66133 8.54007 7.7539C8.41157 7.84647 8.26292 7.90719 8.10637 7.93107C7.94981 7.95495 7.78982 7.94131 7.63957 7.89127C7.26357 7.76727 6.92757 7.83727 6.56957 8.12527C6.17757 8.44527 5.79557 9.01327 5.52157 9.77927C4.96357 11.3433 5.02157 13.2373 5.78757 14.3893C5.89696 14.5533 5.95541 14.7461 5.95557 14.9433H7.45557C8.64904 14.9433 9.79363 15.4174 10.6375 16.2613C11.4815 17.1052 11.9556 18.2498 11.9556 19.4433V20.1133C12.6228 20.3492 13.1851 20.8133 13.5432 21.4237C13.9013 22.0342 14.032 22.7515 13.9124 23.449C13.7927 24.1465 13.4303 24.7792 12.8892 25.2354C12.3482 25.6915 11.6633 25.9417 10.9556 25.9417C10.2479 25.9417 9.56298 25.6915 9.02191 25.2354C8.48084 24.7792 8.11844 24.1465 7.99877 23.449C7.8791 22.7515 8.00986 22.0342 8.36794 21.4237C8.72601 20.8133 9.28835 20.3492 9.95557 20.1133V19.4433C9.95557 18.0633 8.83557 16.9433 7.45557 16.9433H3.95557C3.83601 16.9431 3.71746 16.9214 3.60557 16.8793L3.59957 16.8913C3.20357 17.6813 2.95557 18.9933 2.95557 20.9433C2.95557 22.6613 3.58557 23.6293 4.23157 24.1833C4.92557 24.7793 5.69557 24.9433 5.95557 24.9433C6.22078 24.9433 6.47514 25.0486 6.66267 25.2362C6.85021 25.4237 6.95557 25.678 6.95557 25.9433C6.95557 26.6793 7.35557 27.9653 8.23557 29.0693C9.09357 30.1393 10.3276 30.9433 11.9556 30.9433C13.0756 30.9433 14.0796 30.3173 14.8556 29.5033C15.2376 29.1033 15.5356 28.6893 15.7296 28.3493C15.8179 28.1985 15.8935 28.0406 15.9556 27.8773V11.9433H13.7856C13.5497 12.6105 13.0855 13.1728 12.4751 13.5309C11.8647 13.889 11.1473 14.0197 10.4498 13.9001C9.75234 13.7804 9.1196 13.418 8.66346 12.8769C8.20732 12.3359 7.95714 11.651 7.95714 10.9433C7.95714 10.2356 8.20732 9.55068 8.66346 9.00961C9.1196 8.46854 9.75234 8.10614 10.4498 7.98647C11.1473 7.8668 11.8647 7.99756 12.4751 8.35563C13.0855 8.71371 13.5497 9.27605 13.7856 9.94327H15.9556V5.94327ZM17.9556 25.9413V27.8753C18.0177 28.0386 18.0933 28.1965 18.1816 28.3473C18.3776 28.6873 18.6736 29.1013 19.0536 29.5013C19.8316 30.3153 20.8376 30.9413 21.9556 30.9413C23.5836 30.9413 24.8176 30.1373 25.6756 29.0673C26.5556 27.9633 26.9556 26.6773 26.9556 25.9413C26.9556 25.676 27.0609 25.4217 27.2485 25.2342C27.436 25.0466 27.6903 24.9413 27.9556 24.9413C28.2156 24.9413 28.9856 24.7773 29.6796 24.1813C30.3256 23.6273 30.9556 22.6593 30.9556 20.9413C30.9556 18.9913 30.7056 17.6813 30.3116 16.8893C30.1798 16.5944 29.9729 16.3392 29.7116 16.1493C29.4864 16.0053 29.2227 15.9334 28.9556 15.9433C28.7747 15.9432 28.5972 15.894 28.4421 15.801C28.2869 15.7081 28.1599 15.5747 28.0745 15.4153C27.9891 15.2558 27.9486 15.0762 27.9572 14.8955C27.9659 14.7148 28.0234 14.5399 28.1236 14.3893C28.8916 13.2373 28.9476 11.3433 28.3896 9.77927C28.1156 9.01327 27.7336 8.44327 27.3416 8.12527C26.9836 7.83727 26.6476 7.76527 26.2716 7.89127C26.1213 7.94131 25.9613 7.95495 25.8048 7.93107C25.6482 7.90719 25.4996 7.84647 25.3711 7.7539C25.2426 7.66133 25.1379 7.53957 25.0657 7.39864C24.9934 7.25771 24.9557 7.10163 24.9556 6.94327C24.9556 5.80727 24.3956 4.82927 23.4656 4.10727C22.4532 3.348 21.221 2.93936 19.9556 2.94327C19.5643 2.92476 19.181 3.05803 18.8856 3.31527C18.6031 3.58736 18.3905 3.92352 18.2656 4.29527C18.0752 4.81768 17.9705 5.36744 17.9556 5.92327V23.9433H19.4556C20.8356 23.9433 21.9556 22.8233 21.9556 21.4433V17.7733C21.2884 17.5374 20.726 17.0732 20.3679 16.4628C20.0099 15.8524 19.8791 15.135 19.9988 14.4375C20.1184 13.74 20.4808 13.1073 21.0219 12.6512C21.563 12.195 22.2479 11.9448 22.9556 11.9448C23.6633 11.9448 24.3482 12.195 24.8892 12.6512C25.4303 13.1073 25.7927 13.74 25.9124 14.4375C26.032 15.135 25.9013 15.8524 25.5432 16.4628C25.1851 17.0732 24.6228 17.5374 23.9556 17.7733V21.4433C23.9556 22.6367 23.4815 23.7813 22.6375 24.6252C21.7936 25.4692 20.649 25.9433 19.4556 25.9433H17.9556V25.9413ZM9.95557 10.9433C9.95557 11.2085 10.0609 11.4628 10.2485 11.6504C10.436 11.8379 10.6903 11.9433 10.9556 11.9433C11.2208 11.9433 11.4751 11.8379 11.6627 11.6504C11.8502 11.4628 11.9556 11.2085 11.9556 10.9433C11.9556 10.678 11.8502 10.4237 11.6627 10.2362C11.4751 10.0486 11.2208 9.94327 10.9556 9.94327C10.6903 9.94327 10.436 10.0486 10.2485 10.2362C10.0609 10.4237 9.95557 10.678 9.95557 10.9433ZM22.9556 15.9433C23.2208 15.9433 23.4751 15.8379 23.6627 15.6504C23.8502 15.4628 23.9556 15.2085 23.9556 14.9433C23.9556 14.678 23.8502 14.4237 23.6627 14.2362C23.4751 14.0486 23.2208 13.9433 22.9556 13.9433C22.6903 13.9433 22.436 14.0486 22.2485 14.2362C22.0609 14.4237 21.9556 14.678 21.9556 14.9433C21.9556 15.2085 22.0609 15.4628 22.2485 15.6504C22.436 15.8379 22.6903 15.9433 22.9556 15.9433ZM10.9556 21.9433C10.6903 21.9433 10.436 22.0486 10.2485 22.2362C10.0609 22.4237 9.95557 22.678 9.95557 22.9433C9.95557 23.2085 10.0609 23.4628 10.2485 23.6504C10.436 23.8379 10.6903 23.9433 10.9556 23.9433C11.2208 23.9433 11.4751 23.8379 11.6627 23.6504C11.8502 23.4628 11.9556 23.2085 11.9556 22.9433C11.9556 22.678 11.8502 22.4237 11.6627 22.2362C11.4751 22.0486 11.2208 21.9433 10.9556 21.9433Z" fill="black"/>
</svg>
