<svg width="41" height="39" viewBox="0 0 41 39" fill="none" xmlns="http://www.w3.org/2000/svg">
<path d="M35.9556 2.58496C36.6186 2.58496 37.2545 2.84835 37.7233 3.31719C38.1922 3.78603 38.4556 4.42192 38.4556 5.08496V25.085C38.4556 25.748 38.1922 26.3839 37.7233 26.8527C37.2545 27.3216 36.6186 27.585 35.9556 27.585H11.9906C10.6646 27.5852 9.39303 28.1122 8.45557 29.05L3.45557 34.05V5.08496C3.45557 4.42192 3.71896 3.78603 4.1878 3.31719C4.65664 2.84835 5.29253 2.58496 5.95557 2.58496H35.9556ZM5.95557 0.0849609C4.62948 0.0849609 3.35771 0.611745 2.42003 1.54943C1.48235 2.48711 0.955566 3.75888 0.955566 5.08496L0.955566 37.0675C0.955619 37.3148 1.02905 37.5566 1.16656 37.7621C1.30407 37.9677 1.49948 38.1279 1.72806 38.2224C1.95665 38.3169 2.20812 38.3414 2.45066 38.2929C2.69319 38.2444 2.91589 38.1251 3.09057 37.95L10.2231 30.8175C10.6918 30.3486 11.3276 30.0851 11.9906 30.085H35.9556C37.2817 30.085 38.5534 29.5582 39.4911 28.6205C40.4288 27.6828 40.9556 26.411 40.9556 25.085V5.08496C40.9556 3.75888 40.4288 2.48711 39.4911 1.54943C38.5534 0.611745 37.2817 0.0849609 35.9556 0.0849609L5.95557 0.0849609Z" fill="black"/>
<path d="M8.45557 8.83496C8.45557 8.50344 8.58726 8.1855 8.82168 7.95108C9.0561 7.71666 9.37405 7.58496 9.70557 7.58496H32.2056C32.5371 7.58496 32.855 7.71666 33.0895 7.95108C33.3239 8.1855 33.4556 8.50344 33.4556 8.83496C33.4556 9.16648 33.3239 9.48442 33.0895 9.71884C32.855 9.95326 32.5371 10.085 32.2056 10.085H9.70557C9.37405 10.085 9.0561 9.95326 8.82168 9.71884C8.58726 9.48442 8.45557 9.16648 8.45557 8.83496ZM8.45557 15.085C8.45557 14.7534 8.58726 14.4355 8.82168 14.2011C9.0561 13.9667 9.37405 13.835 9.70557 13.835H32.2056C32.5371 13.835 32.855 13.9667 33.0895 14.2011C33.3239 14.4355 33.4556 14.7534 33.4556 15.085C33.4556 15.4165 33.3239 15.7344 33.0895 15.9688C32.855 16.2033 32.5371 16.335 32.2056 16.335H9.70557C9.37405 16.335 9.0561 16.2033 8.82168 15.9688C8.58726 15.7344 8.45557 15.4165 8.45557 15.085ZM8.45557 21.335C8.45557 21.0034 8.58726 20.6855 8.82168 20.4511C9.0561 20.2167 9.37405 20.085 9.70557 20.085H22.2056C22.5371 20.085 22.855 20.2167 23.0895 20.4511C23.3239 20.6855 23.4556 21.0034 23.4556 21.335C23.4556 21.6665 23.3239 21.9844 23.0895 22.2188C22.855 22.4533 22.5371 22.585 22.2056 22.585H9.70557C9.37405 22.585 9.0561 22.4533 8.82168 22.2188C8.58726 21.9844 8.45557 21.6665 8.45557 21.335Z" fill="black"/>
</svg>
