<svg width="41" height="41" viewBox="0 0 41 41" fill="none" xmlns="http://www.w3.org/2000/svg">
<path d="M20.9056 2.58496C17.4445 2.58496 14.061 3.61132 11.1832 5.53424C8.30529 7.45717 6.06227 10.1903 4.73774 13.388C3.41321 16.5857 3.06665 20.1044 3.74189 23.499C4.41713 26.8937 6.08384 30.0119 8.53126 32.4593C10.9787 34.9067 14.0969 36.5735 17.4916 37.2487C20.8862 37.9239 24.4049 37.5774 27.6026 36.2529C30.8003 34.9283 33.5334 32.6853 35.4563 29.8074C37.3793 26.9296 38.4056 23.5461 38.4056 20.085C38.4003 15.4453 36.5549 10.9972 33.2742 7.71644C29.9934 4.4357 25.5453 2.59025 20.9056 2.58496ZM27.1556 6.46746C28.4794 7.07762 29.7073 7.87726 30.8006 8.84121L30.2844 10.085H27.1556V6.46746ZM17.6281 34.7137C14.9232 34.1127 12.4381 32.7727 10.4496 30.843C8.46112 28.9132 7.04725 26.4694 6.36542 23.7837C5.68359 21.098 5.76056 18.2757 6.58776 15.6311C7.41495 12.9866 8.95992 10.6235 11.0506 8.80496L12.7369 11.335H16.9144L15.0394 16.335H10.0056L8.27813 21.52L11.4869 26.335H17.7369L19.5269 29.0187L17.6281 34.7137ZM20.9056 35.085C20.6519 35.085 20.4031 35.06 20.1519 35.0475L21.8981 29.81C22.0195 29.4491 22.0564 29.0653 22.0059 28.6879C21.9554 28.3106 21.8189 27.9499 21.6069 27.6337L19.8169 24.9487C19.589 24.6059 19.2798 24.3248 18.9169 24.1304C18.5539 23.9361 18.1486 23.8346 17.7369 23.835H12.8244L11.0344 21.15L11.8069 18.835H14.6556V21.335H17.1556V17.8112L20.8256 8.02371L18.4856 7.14621L17.8519 8.83496H14.0744L13.0656 7.32246C14.7755 6.25462 16.6863 5.54882 18.6798 5.24868C20.6732 4.94854 22.7071 5.06044 24.6556 5.57746V10.085C24.6563 10.7478 24.9199 11.3833 25.3886 11.852C25.8573 12.3207 26.4928 12.5843 27.1556 12.585H30.3881C30.7165 12.5859 31.0419 12.5216 31.3453 12.3958C31.6487 12.2701 31.9241 12.0854 32.1556 11.8525L32.3306 11.6775L32.6831 10.8275C33.6923 12.1093 34.4852 13.5474 35.0306 15.085H29.1544C28.5634 15.0831 27.991 15.2914 27.5395 15.6727C27.0879 16.0539 26.7866 16.5833 26.6894 17.1662L25.9431 21.4675C25.8528 21.9769 25.9235 22.5019 26.1456 22.9693C26.3676 23.4367 26.7299 23.8232 27.1819 24.075L29.8881 25.905L31.7106 30.4625C30.3154 31.923 28.6386 33.0857 26.7815 33.8802C24.9244 34.6746 22.9255 35.0845 20.9056 35.085ZM31.9244 24.265L28.5306 21.9712L28.4056 21.8962L29.1544 17.585H35.6794C36.3342 21.273 35.5543 25.0719 33.4994 28.2037L31.9244 24.265Z" fill="black"/>
</svg>
