<svg width="30" height="31" viewBox="0 0 30 31" fill="none" xmlns="http://www.w3.org/2000/svg">
<path d="M6.22877 9.24956C7.73927 9.24956 8.96377 8.02505 8.96377 6.51456C8.96377 5.00406 7.73927 3.77956 6.22877 3.77956C4.71828 3.77956 3.49377 5.00406 3.49377 6.51456C3.49377 8.02505 4.71828 9.24956 6.22877 9.24956Z" fill="black"/>
<path d="M11.5463 11.322V26.4958H16.2575V18.992C16.2575 17.012 16.63 15.0945 19.085 15.0945C21.5063 15.0945 21.5363 17.3583 21.5363 19.117V26.497H26.25V18.1758C26.25 14.0883 25.37 10.947 20.5925 10.947C18.2988 10.947 16.7613 12.2058 16.1325 13.397H16.0688V11.322H11.5463ZM3.86877 11.322H8.58752V26.4958H3.86877V11.322Z" fill="black"/>
</svg>
