<svg width="51" height="52" viewBox="0 0 51 52" fill="none" xmlns="http://www.w3.org/2000/svg">
<rect y="25.6585" width="25.4052" height="25.4052" fill="#111111"/>
<path d="M25.4052 12.9559C25.4052 5.94044 31.0923 0.253296 38.1077 0.253296C45.1232 0.253296 50.8103 5.94044 50.8103 12.9559C50.8103 19.9713 45.1232 25.6585 38.1077 25.6585C31.0923 25.6585 25.4052 19.9713 25.4052 12.9559Z" fill="#111111"/>
<path d="M0.000366211 0.253357H25.4056V12.956C25.4056 19.9714 19.7184 25.6586 12.703 25.6586C5.68751 25.6586 0.000366211 19.9714 0.000366211 12.956V0.253357Z" fill="#111111"/>
<path d="M50.8103 25.6585L50.8103 51.0637L38.1077 51.0637C31.0922 51.0637 25.4051 45.3766 25.4051 38.3611C25.4051 31.3457 31.0923 25.6585 38.1077 25.6585L50.8103 25.6585Z" fill="#111111"/>
</svg>
