<svg width="41" height="41" viewBox="0 0 41 41" fill="none" xmlns="http://www.w3.org/2000/svg">
<path d="M35.8224 4.91002C33.9513 4.49097 32.0398 4.27859 30.1224 4.27669C28.3115 4.16171 26.4958 4.40585 24.7796 4.99507C23.0635 5.58429 21.4807 6.50696 20.1224 7.71002C18.3335 9.49891 16.5613 11.2822 14.8057 13.06C12.789 12.8434 8.0057 12.7267 4.8057 15.96C4.49528 16.2723 4.32104 16.6947 4.32104 17.135C4.32104 17.5753 4.49528 17.9977 4.8057 18.31L23.639 37.1767C23.9513 37.4871 24.3737 37.6613 24.814 37.6613C25.2543 37.6613 25.6768 37.4871 25.989 37.1767C29.239 33.8434 29.139 29.1434 28.939 27.1767L34.289 21.8434C39.6057 16.5267 37.189 6.54336 37.089 6.12669C37.0121 5.82608 36.8528 5.55292 36.629 5.33797C36.4052 5.12302 36.1258 4.9748 35.8224 4.91002V4.91002ZM31.889 19.4934L25.9557 25.3934C25.7635 25.5874 25.622 25.8257 25.5435 26.0872C25.4651 26.3488 25.4521 26.6256 25.5057 26.8934C25.8657 29.123 25.5524 31.4094 24.6057 33.46L8.48903 17.31C10.5721 16.3513 12.9007 16.0602 15.1557 16.4767C15.4225 16.5114 15.6937 16.4811 15.9462 16.3882C16.1987 16.2953 16.425 16.1427 16.6057 15.9434C16.6057 15.9434 18.939 13.5267 22.4557 10.01C24.6181 8.27355 27.3558 7.41651 30.1224 7.61002C31.4237 7.61647 32.7223 7.72794 34.0057 7.94336C34.4057 10.3267 35.039 16.3434 31.889 19.4934V19.4934Z" fill="black"/>
<path d="M24.3553 20.9433C26.1963 20.9433 27.6886 19.4509 27.6886 17.6099C27.6886 15.769 26.1963 14.2766 24.3553 14.2766C22.5144 14.2766 21.022 15.769 21.022 17.6099C21.022 19.4509 22.5144 20.9433 24.3553 20.9433Z" fill="black"/>
<path d="M9.28902 27.6101C5.95569 29.2768 5.95569 35.9434 5.95569 35.9434C9.0408 35.8554 11.9943 34.674 14.289 32.6101L9.28902 27.6101Z" fill="black"/>
</svg>
