<svg width="36" height="41" viewBox="0 0 36 41" fill="none" xmlns="http://www.w3.org/2000/svg">
<path d="M11.3006 4.91836C8.91955 5.57457 6.5547 6.28811 4.20808 7.05836C3.9938 7.12777 3.80333 7.25597 3.65835 7.42835C3.51338 7.60072 3.41973 7.81036 3.38808 8.03336C2.00308 18.4259 5.20308 26.0084 9.02058 31.0034C10.6369 33.1393 12.5641 35.0211 14.7381 36.5859C15.6031 37.1959 16.3681 37.6359 16.9706 37.9184C17.2706 38.0609 17.5156 38.1559 17.7031 38.2134C17.7851 38.2421 17.8696 38.2631 17.9556 38.2759C18.0405 38.2621 18.1241 38.2412 18.2056 38.2134C18.3956 38.1559 18.6406 38.0609 18.9406 37.9184C19.5406 37.6359 20.3081 37.1934 21.1731 36.5859C23.347 35.021 25.2743 33.1393 26.8906 31.0034C30.7081 26.0109 33.9081 18.4259 32.5231 8.03336C32.4917 7.81025 32.3982 7.60048 32.2532 7.42806C32.1081 7.25563 31.9175 7.12751 31.7031 7.05836C30.0756 6.52586 27.3281 5.65836 24.6106 4.92086C21.8356 4.16836 19.2831 3.61086 17.9556 3.61086C16.6306 3.61086 14.0756 4.16836 11.3006 4.92086V4.91836ZM10.6356 2.34336C13.3481 1.60586 16.2306 0.943359 17.9556 0.943359C19.6806 0.943359 22.5631 1.60586 25.2756 2.34336C28.0506 3.09336 30.8481 3.98086 32.4931 4.51836C33.1809 4.74549 33.7906 5.16202 34.2523 5.72011C34.714 6.2782 35.0089 6.95521 35.1031 7.67336C36.5931 18.8659 33.1356 27.1609 28.9406 32.6484C27.1617 34.9958 25.0406 37.063 22.6481 38.7809C21.8208 39.3753 20.9443 39.898 20.0281 40.3434C19.3281 40.6734 18.5756 40.9434 17.9556 40.9434C17.3356 40.9434 16.5856 40.6734 15.8831 40.3434C14.9669 39.898 14.0903 39.3753 13.2631 38.7809C10.8706 37.0629 8.74953 34.9958 6.97058 32.6484C2.77558 27.1609 -0.68192 18.8659 0.80808 7.67336C0.902298 6.95521 1.19719 6.2782 1.65887 5.72011C2.12056 5.16202 2.73031 4.74549 3.41808 4.51836C5.80606 3.73538 8.21259 3.01017 10.6356 2.34336V2.34336Z" fill="black"/>
<path d="M24.4653 16.3082C24.5817 16.4243 24.674 16.5622 24.737 16.7141C24.8001 16.8659 24.8325 17.0287 24.8325 17.1932C24.8325 17.3576 24.8001 17.5204 24.737 17.6722C24.674 17.8241 24.5817 17.962 24.4653 18.0782L16.9653 25.5782C16.8491 25.6946 16.7112 25.7869 16.5593 25.8499C16.4075 25.9129 16.2447 25.9454 16.0803 25.9454C15.9158 25.9454 15.753 25.9129 15.6012 25.8499C15.4493 25.7869 15.3114 25.6946 15.1953 25.5782L11.4453 21.8282C11.329 21.7119 11.2368 21.574 11.1739 21.4221C11.111 21.2703 11.0787 21.1075 11.0787 20.9432C11.0787 20.7788 11.111 20.616 11.1739 20.4642C11.2368 20.3123 11.329 20.1744 11.4453 20.0582C11.5615 19.9419 11.6994 19.8497 11.8513 19.7868C12.0031 19.7239 12.1659 19.6916 12.3303 19.6916C12.4946 19.6916 12.6574 19.7239 12.8092 19.7868C12.9611 19.8497 13.099 19.9419 13.2153 20.0582L16.0803 22.9257L22.6953 16.3082C22.8114 16.1917 22.9493 16.0994 23.1012 16.0364C23.253 15.9734 23.4158 15.9409 23.5803 15.9409C23.7447 15.9409 23.9075 15.9734 24.0593 16.0364C24.2112 16.0994 24.3491 16.1917 24.4653 16.3082Z" fill="black"/>
</svg>
