<svg width="41" height="41" viewBox="0 0 41 41" fill="none" xmlns="http://www.w3.org/2000/svg">
<path d="M20.9556 9.81006L20.5643 9.92881L4.93934 15.1638L3.44985 15.6549C2.80044 15.869 2.80438 16.789 3.45559 16.9976V27.9351C2.70934 28.3688 2.20559 29.1601 2.20559 30.0851C2.20559 30.7481 2.46898 31.384 2.93782 31.8528C3.40666 32.3217 4.04255 32.5851 4.70559 32.5851C5.36863 32.5851 6.00452 32.3217 6.47336 31.8528C6.9422 31.384 7.20559 30.7481 7.20559 30.0851C7.20559 29.1601 6.70184 28.3688 5.95559 27.9351V17.8601L8.45559 18.6788V25.0851C8.45559 26.1101 9.08059 26.9601 9.82309 27.5476C10.5656 28.1313 11.4881 28.5438 12.5956 28.9138C14.8131 29.6513 17.7356 30.0851 20.9556 30.0851C24.1756 30.0851 27.0981 29.6526 29.3156 28.9126C30.4231 28.5438 31.3456 28.1313 32.0881 27.5463C32.8306 26.9601 33.4556 26.1101 33.4556 25.0851V18.6788L36.9718 17.5063C38.1016 17.1338 38.1003 15.5353 36.9706 15.1626L21.3456 9.92881L20.9556 9.81006ZM20.9556 12.4288L32.6743 16.3351L20.9556 20.2413L9.23684 16.3351L20.9556 12.4288ZM10.9556 19.5388L20.5656 22.7413L20.9556 22.8588L21.3468 22.7401L30.9556 19.5376V25.0851C30.9556 25.0976 30.9606 25.2426 30.5643 25.5538C30.1693 25.8663 29.4606 26.2601 28.5331 26.5701C26.6806 27.1863 23.9493 27.5851 20.9556 27.5851C17.9618 27.5851 15.2306 27.1876 13.3768 26.5688C12.4518 26.2601 11.7418 25.8651 11.3468 25.5538C10.9493 25.2413 10.9556 25.0976 10.9556 25.0851V19.5388Z" fill="black"/>
</svg>
