<svg width="30" height="31" viewBox="0 0 30 31" fill="none" xmlns="http://www.w3.org/2000/svg">
<path d="M25.5019 4.84799C24.1265 3.45988 22.4886 2.35939 20.6837 1.61063C18.8787 0.861865 16.9428 0.479816 14.9887 0.486741C6.80062 0.486741 0.1275 7.15799 0.12 15.348C0.12 17.9711 0.80625 20.523 2.10188 22.7824L0 30.4867L7.8825 28.4205C10.0631 29.6072 12.5061 30.2292 14.9887 30.2299H14.9963C23.1863 30.2299 29.8575 23.5586 29.865 15.3611C29.8669 13.4074 29.4822 11.4727 28.733 9.66839C27.9839 7.86406 26.8851 6.2258 25.5 4.84799H25.5019ZM14.9887 27.7136C12.7744 27.7144 10.6007 27.1185 8.69625 25.9886L8.24625 25.7186L3.57 26.9449L4.81875 22.383L4.52625 21.9124C3.28839 19.9442 2.63371 17.6655 2.63812 15.3405C2.63812 8.54174 8.1825 2.99549 14.9963 2.99549C16.6195 2.99258 18.2273 3.31101 19.7269 3.93241C21.2265 4.55382 22.5883 5.46592 23.7337 6.61612C24.8832 7.76183 25.7944 9.12379 26.4149 10.6234C27.0353 12.1231 27.3527 13.7307 27.3488 15.3536C27.3413 22.1767 21.7969 27.7136 14.9887 27.7136ZM21.7669 18.4624C21.3975 18.2767 19.5731 17.3786 19.23 17.2511C18.8888 17.1292 18.6394 17.0655 18.3956 17.4367C18.1462 17.8061 17.4338 18.648 17.22 18.8899C17.0063 19.1392 16.785 19.1674 16.4137 18.9836C16.0444 18.7961 14.8463 18.4061 13.4288 17.1367C12.3225 16.1524 11.5819 14.9336 11.3606 14.5642C11.1469 14.193 11.34 13.9942 11.5256 13.8086C11.6887 13.6436 11.895 13.3736 12.0806 13.1599C12.2681 12.9461 12.33 12.7886 12.4519 12.5411C12.5737 12.2899 12.5156 12.0761 12.4237 11.8905C12.33 11.7049 11.5894 9.87299 11.2762 9.13424C10.9762 8.40487 10.6706 8.50611 10.4419 8.49674C10.2281 8.48362 9.97875 8.48362 9.72937 8.48362C9.54106 8.4883 9.35574 8.53185 9.18505 8.61155C9.01436 8.69125 8.86199 8.80536 8.7375 8.94674C8.39625 9.31799 7.44187 10.2161 7.44187 12.048C7.44187 13.8799 8.77312 15.6405 8.96062 15.8899C9.14437 16.1392 11.5744 19.8874 15.3037 21.4999C16.185 21.8842 16.8787 22.1111 17.4206 22.2836C18.3113 22.5686 19.1156 22.5255 19.7569 22.4336C20.4694 22.3249 21.9525 21.5336 22.2656 20.6655C22.5731 19.7955 22.5731 19.053 22.4794 18.8974C22.3875 18.7399 22.1381 18.648 21.7669 18.4624Z" fill="black"/>
</svg>
